<?xml version="1.0" encoding="utf-8"?>
<!-- Svg Vector Icons : http://www.onlinewebfonts.com/icon -->
<!DOCTYPE svg PUBLIC "-//W3C//DTD SVG 1.1//EN" "http://www.w3.org/Graphics/SVG/1.1/DTD/svg11.dtd">
<svg version="1.1" xmlns="http://www.w3.org/2000/svg" xmlns:xlink="http://www.w3.org/1999/xlink" x="0px" y="0px" viewBox="0 0 1000 1000" enable-background="new 0 0 1000 1000" xml:space="preserve">
<metadata> Svg Vector Icons : http://www.onlinewebfonts.com/icon </metadata>
<g><path d="M500,990C229.8,990,10,770.2,10,500S229.8,10,500,10s490,219.8,490,490S770.2,990,500,990z M500,80.3C268.6,80.3,80.3,268.6,80.3,500c0,231.4,188.3,419.7,419.7,419.7c231.4,0,419.7-188.3,419.7-419.7C919.7,268.6,731.4,80.3,500,80.3z M735.1,370c-13.7-13.6-35.9-13.5-49.5,0.3l-255.2,258L317.5,512.2c-13.5-13.9-35.7-14.1-49.5-0.7c-13.9,13.5-14.2,35.7-0.7,49.5l137.8,141.6c0.1,0.1,0.2,0.1,0.3,0.2c0.1,0.1,0.1,0.2,0.2,0.3c2.2,2.2,4.9,3.5,7.5,5c1.4,0.7,2.4,2,3.8,2.5c4.2,1.8,8.8,2.6,13.2,2.6c4.4,0,8.9-0.9,13.1-2.6c1.4-0.6,2.4-1.7,3.7-2.4c2.6-1.5,5.4-2.8,7.6-5c0.1-0.1,0.1-0.2,0.2-0.3c0.1-0.1,0.2-0.1,0.3-0.2l280.2-283.3C749,405.8,748.8,383.6,735.1,370z"/></g>
</svg>