<?xml version="1.0" standalone="no"?>
<svg version="1.0" xmlns="http://www.w3.org/2000/svg"
 width="512.000000pt" height="512.000000pt" viewBox="0 0 512.000000 512.000000"
 preserveAspectRatio="xMidYMid meet">

<g transform="translate(0.000000,512.000000) scale(0.100000,-0.100000)"
fill="#000000" stroke="none">
<path d="M2252 5045 c-24 -30 -120 -253 -212 -494 l-67 -173 -156 -64 -157
-64 -197 81 c-216 89 -484 189 -506 189 -8 0 -106 -89 -217 -198 l-203 -197
13 -40 c20 -63 110 -275 199 -469 l83 -178 -63 -149 c-34 -82 -67 -153 -73
-158 -6 -4 -83 -36 -171 -71 -222 -88 -453 -187 -492 -211 l-33 -21 0 -279 0
-279 33 -20 c34 -21 351 -148 551 -222 l119 -43 65 -152 65 -153 -86 -202
c-105 -249 -175 -427 -184 -469 -6 -29 2 -39 133 -171 76 -76 169 -166 205
-199 l66 -59 69 24 c83 28 310 122 492 204 l134 60 156 -63 157 -63 86 -203
c117 -279 171 -397 203 -447 l26 -42 282 2 282 3 22 32 c26 39 113 242 203
478 l68 178 157 63 157 64 217 -89 c233 -96 462 -181 487 -181 8 0 105 89 216
198 l202 198 -13 39 c-21 67 -104 260 -195 459 l-86 187 62 150 c34 82 67 153
73 158 6 4 83 36 171 71 211 83 419 172 478 205 l47 27 0 279 0 279 -32 20
c-35 21 -326 138 -542 218 l-129 47 -65 153 -65 153 86 202 c105 248 175 426
184 468 6 29 -2 38 -123 161 -71 71 -163 161 -205 199 l-76 69 -69 -24 c-83
-28 -310 -122 -492 -204 l-134 -60 -156 63 -157 63 -86 203 c-120 284 -176
408 -205 452 l-24 37 -279 0 -280 0 -19 -25z m476 -1701 c309 -63 554 -298
633 -604 21 -82 18 -299 -5 -375 -73 -244 -215 -414 -433 -524 -147 -73 -357
-100 -524 -67 -301 62 -538 277 -631 576 -33 108 -33 312 0 420 91 292 327
511 617 573 93 20 248 21 343 1z"/>
</g>
</svg>
