<?xml version="1.0" standalone="no"?>
<!DOCTYPE svg PUBLIC "-//W3C//DTD SVG 20010904//EN"
 "http://www.w3.org/TR/2001/REC-SVG-20010904/DTD/svg10.dtd">
<svg version="1.0" xmlns="http://www.w3.org/2000/svg"
 width="700.000000pt" height="607.000000pt" viewBox="0 0 700.000000 607.000000"
 preserveAspectRatio="xMidYMid meet">

<g transform="translate(0.000000,607.000000) scale(0.100000,-0.100000)"
fill="#000000" stroke="none">
<path d="M3301 6059 c-220 -23 -440 -88 -646 -190 -179 -88 -302 -176 -440
-314 -126 -126 -204 -231 -280 -377 -65 -126 -89 -184 -127 -313 -61 -212 -62
-215 -68 -890 l-5 -620 -77 -7 c-154 -14 -321 -91 -424 -195 -59 -60 -105
-147 -123 -231 -8 -37 -11 -397 -11 -1185 0 -1243 -2 -1200 61 -1317 44 -83
110 -153 202 -214 87 -57 121 -74 231 -112 l70 -24 1854 0 c2070 0 1899 -6
2062 72 158 76 270 217 305 383 22 103 22 2295 0 2398 -50 236 -263 409 -525
426 l-95 6 -5 595 c-6 555 -7 603 -28 712 -52 281 -132 487 -273 699 -84 126
-282 324 -409 408 -353 235 -795 337 -1249 290z m464 -738 c168 -44 338 -150
446 -278 115 -135 198 -335 229 -548 5 -39 10 -306 10 -608 l0 -537 -952 2
-953 3 3 530 c3 416 7 550 19 625 69 428 342 738 723 821 118 26 359 21 475
-10z m-127 -2696 c120 -36 245 -156 292 -282 28 -73 37 -201 20 -274 -21 -91
-69 -177 -137 -244 l-62 -61 88 -430 c49 -236 88 -430 86 -432 -1 -1 -193 -1
-426 0 l-425 3 87 429 88 430 -62 61 c-98 97 -146 210 -147 345 0 132 47 248
140 340 124 124 288 165 458 115z"/>
</g>
</svg>
