<?xml version="1.0" standalone="no"?>
<!DOCTYPE svg PUBLIC "-//W3C//DTD SVG 20010904//EN"
 "http://www.w3.org/TR/2001/REC-SVG-20010904/DTD/svg10.dtd">
<svg version="1.0" xmlns="http://www.w3.org/2000/svg"
 width="980.000000pt" height="830.000000pt" viewBox="0 0 980.000000 830.000000"
 preserveAspectRatio="xMidYMid meet">

<g transform="translate(0.000000,830.000000) scale(0.100000,-0.100000)"
fill="#000000" stroke="none">
<path d="M4827 8274 c-25 -13 -2361 -2202 -2439 -2285 -34 -36 -36 -72 -6 -93
20 -14 113 -16 805 -16 l783 0 0 -1159 c0 -838 3 -1167 11 -1192 14 -40 53
-85 91 -105 23 -12 158 -14 829 -14 l801 0 40 22 c21 12 49 38 61 58 l22 35 3
1178 2 1177 783 0 c692 0 785 2 805 16 57 40 108 -12 -1194 1214 -669 630
-1230 1153 -1247 1162 -40 21 -113 22 -150 2z"/>
<path d="M1390 3429 c-228 -159 -578 -403 -778 -541 -453 -314 -501 -362 -574
-573 -57 -166 -59 -146 106 -1050 80 -440 153 -821 162 -847 45 -137 178 -274
337 -348 139 -65 -226 -60 4254 -60 2935 0 4087 3 4125 11 74 15 201 77 275
133 101 76 186 203 212 316 6 25 74 394 152 820 129 707 140 782 136 857 -11
156 -85 320 -201 438 -45 47 -256 199 -796 573 -404 280 -753 521 -776 535
l-40 27 -459 -2 -458 -3 494 -400 c272 -220 619 -500 771 -624 153 -123 276
-226 273 -229 -2 -2 -389 1 -859 8 l-856 12 -45 -22 c-25 -12 -54 -34 -63 -48
-9 -14 -123 -282 -253 -596 l-237 -571 -1392 0 -1392 0 -241 585 c-242 584
-242 584 -285 615 l-44 30 -871 5 -871 5 750 599 c412 329 758 607 769 618 19
18 7 18 -445 17 l-465 -1 -415 -289z"/>
</g>
</svg>
